<mxfile host="Electron" agent="Mozilla/5.0 (Macintosh; Intel Mac OS X 10_15_7) AppleWebKit/537.36 (KHTML, like Gecko) draw.io/27.0.9 Chrome/134.0.6998.205 Electron/35.4.0 Safari/537.36" version="27.0.9">
  <diagram name="Page-1" id="PCKaCpVYWczDn-b74tcw">
    <mxGraphModel dx="1641" dy="534" grid="1" gridSize="10" guides="1" tooltips="1" connect="1" arrows="1" fold="1" page="1" pageScale="1" pageWidth="827" pageHeight="1169" math="0" shadow="0">
      <root>
        <mxCell id="0" />
        <mxCell id="1" parent="0" />
        <mxCell id="ddAq5CgOGKGEsgJp8Uih-1" value="&lt;font style=&quot;font-size: 34px;&quot;&gt;&lt;b style=&quot;&quot;&gt;Integration Model&lt;/b&gt;&lt;/font&gt;" style="text;html=1;align=center;verticalAlign=middle;resizable=0;points=[];autosize=1;strokeColor=none;fillColor=none;" parent="1" vertex="1">
          <mxGeometry x="220" y="70" width="310" height="50" as="geometry" />
        </mxCell>
        <mxCell id="ddAq5CgOGKGEsgJp8Uih-2" value="crm_cust_info" style="swimlane;fontStyle=0;childLayout=stackLayout;horizontal=1;startSize=30;horizontalStack=0;resizeParent=1;resizeParentMax=0;resizeLast=0;collapsible=1;marginBottom=0;whiteSpace=wrap;html=1;fillColor=#008a00;fontColor=#ffffff;strokeColor=#005700;rounded=1;container=1;" parent="1" vertex="1">
          <mxGeometry x="120" y="510" width="200" height="95" as="geometry">
            <mxRectangle x="190" y="240" width="60" height="30" as="alternateBounds" />
          </mxGeometry>
        </mxCell>
        <mxCell id="ddAq5CgOGKGEsgJp8Uih-6" value="&lt;font style=&quot;font-size: 14px;&quot;&gt;Customer Information&lt;/font&gt;" style="text;html=1;align=center;verticalAlign=middle;resizable=0;points=[];autosize=1;strokeColor=none;fillColor=none;" parent="1" vertex="1">
          <mxGeometry x="140" y="480" width="160" height="30" as="geometry" />
        </mxCell>
        <mxCell id="ddAq5CgOGKGEsgJp8Uih-7" value="crm_prd_info" style="swimlane;fontStyle=0;childLayout=stackLayout;horizontal=1;startSize=30;horizontalStack=0;resizeParent=1;resizeParentMax=0;resizeLast=0;collapsible=1;marginBottom=0;whiteSpace=wrap;html=1;fillColor=#008a00;fontColor=#ffffff;strokeColor=#005700;rounded=1;" parent="1" vertex="1">
          <mxGeometry x="120" y="300" width="200" height="60" as="geometry">
            <mxRectangle x="190" y="240" width="60" height="30" as="alternateBounds" />
          </mxGeometry>
        </mxCell>
        <mxCell id="ddAq5CgOGKGEsgJp8Uih-8" value="prd_key" style="text;strokeColor=none;fillColor=none;align=left;verticalAlign=middle;spacingLeft=4;spacingRight=4;overflow=hidden;points=[[0,0.5],[1,0.5]];portConstraint=eastwest;rotatable=0;whiteSpace=wrap;html=1;rounded=1;fontSize=14;spacing=2;" parent="ddAq5CgOGKGEsgJp8Uih-7" vertex="1">
          <mxGeometry y="30" width="200" height="30" as="geometry" />
        </mxCell>
        <mxCell id="ddAq5CgOGKGEsgJp8Uih-9" value="&lt;font style=&quot;font-size: 14px;&quot;&gt;Current &amp;amp; History Product Information&lt;/font&gt;" style="text;html=1;align=center;verticalAlign=middle;resizable=0;points=[];autosize=1;strokeColor=none;fillColor=none;" parent="1" vertex="1">
          <mxGeometry x="90" y="270" width="260" height="30" as="geometry" />
        </mxCell>
        <mxCell id="ddAq5CgOGKGEsgJp8Uih-10" value="crm_sales_details" style="swimlane;fontStyle=0;childLayout=stackLayout;horizontal=1;startSize=30;horizontalStack=0;resizeParent=1;resizeParentMax=0;resizeLast=0;collapsible=1;marginBottom=0;whiteSpace=wrap;html=1;fillColor=#008a00;fontColor=#ffffff;strokeColor=#005700;rounded=1;" parent="1" vertex="1">
          <mxGeometry x="-200" y="360" width="200" height="90" as="geometry">
            <mxRectangle x="190" y="240" width="60" height="30" as="alternateBounds" />
          </mxGeometry>
        </mxCell>
        <mxCell id="ddAq5CgOGKGEsgJp8Uih-11" value="prd_key" style="text;strokeColor=none;fillColor=none;align=left;verticalAlign=top;spacingLeft=4;spacingRight=4;overflow=hidden;points=[[0,0.5],[1,0.5]];portConstraint=eastwest;rotatable=0;whiteSpace=wrap;html=1;rounded=1;fontSize=14;" parent="ddAq5CgOGKGEsgJp8Uih-10" vertex="1">
          <mxGeometry y="30" width="200" height="30" as="geometry" />
        </mxCell>
        <mxCell id="ddAq5CgOGKGEsgJp8Uih-13" value="cst_id" style="text;strokeColor=none;fillColor=none;align=left;verticalAlign=top;spacingLeft=4;spacingRight=4;overflow=hidden;points=[[0,0.5],[1,0.5]];portConstraint=eastwest;rotatable=0;whiteSpace=wrap;html=1;rounded=1;fontSize=14;" parent="ddAq5CgOGKGEsgJp8Uih-10" vertex="1">
          <mxGeometry y="60" width="200" height="30" as="geometry" />
        </mxCell>
        <mxCell id="ddAq5CgOGKGEsgJp8Uih-12" value="&lt;font style=&quot;font-size: 14px;&quot;&gt;Transactional Records about Sales &amp;amp; Orders&lt;/font&gt;" style="text;html=1;align=center;verticalAlign=middle;resizable=0;points=[];autosize=1;strokeColor=none;fillColor=none;" parent="1" vertex="1">
          <mxGeometry x="-240" y="330" width="300" height="30" as="geometry" />
        </mxCell>
        <mxCell id="ddAq5CgOGKGEsgJp8Uih-14" style="edgeStyle=orthogonalEdgeStyle;rounded=0;orthogonalLoop=1;jettySize=auto;html=1;entryX=0;entryY=0.5;entryDx=0;entryDy=0;endArrow=none;startFill=0;" parent="1" source="ddAq5CgOGKGEsgJp8Uih-11" target="ddAq5CgOGKGEsgJp8Uih-8" edge="1">
          <mxGeometry relative="1" as="geometry" />
        </mxCell>
        <mxCell id="ddAq5CgOGKGEsgJp8Uih-15" style="edgeStyle=orthogonalEdgeStyle;rounded=0;orthogonalLoop=1;jettySize=auto;html=1;entryX=0;entryY=0.5;entryDx=0;entryDy=0;endArrow=none;startFill=0;" parent="1" source="ddAq5CgOGKGEsgJp8Uih-13" target="ddAq5CgOGKGEsgJp8Uih-3" edge="1">
          <mxGeometry relative="1" as="geometry" />
        </mxCell>
        <mxCell id="ddAq5CgOGKGEsgJp8Uih-16" value="erp_cust_az12" style="swimlane;fontStyle=0;childLayout=stackLayout;horizontal=1;startSize=30;horizontalStack=0;resizeParent=1;resizeParentMax=0;resizeLast=0;collapsible=1;marginBottom=0;whiteSpace=wrap;html=1;fillColor=#e3c800;fontColor=#000000;strokeColor=#B09500;rounded=1;" parent="1" vertex="1">
          <mxGeometry x="560" y="460" width="200" height="60" as="geometry">
            <mxRectangle x="190" y="240" width="60" height="30" as="alternateBounds" />
          </mxGeometry>
        </mxCell>
        <mxCell id="ddAq5CgOGKGEsgJp8Uih-17" value="cid" style="text;strokeColor=none;fillColor=none;align=left;verticalAlign=middle;spacingLeft=4;spacingRight=4;overflow=hidden;points=[[0,0.5],[1,0.5]];portConstraint=eastwest;rotatable=0;whiteSpace=wrap;html=1;rounded=1;fontSize=14;" parent="ddAq5CgOGKGEsgJp8Uih-16" vertex="1">
          <mxGeometry y="30" width="200" height="30" as="geometry" />
        </mxCell>
        <mxCell id="ddAq5CgOGKGEsgJp8Uih-18" value="&lt;span style=&quot;font-size: 14px;&quot;&gt;Additional Customer Information (Birthdate &amp;amp; Gender)&lt;/span&gt;" style="text;html=1;align=center;verticalAlign=middle;resizable=0;points=[];autosize=1;strokeColor=none;fillColor=none;" parent="1" vertex="1">
          <mxGeometry x="480" y="430" width="360" height="30" as="geometry" />
        </mxCell>
        <mxCell id="ddAq5CgOGKGEsgJp8Uih-20" style="edgeStyle=orthogonalEdgeStyle;rounded=0;orthogonalLoop=1;jettySize=auto;html=1;entryX=1;entryY=0.5;entryDx=0;entryDy=0;endArrow=none;startFill=0;" parent="1" source="ddAq5CgOGKGEsgJp8Uih-17" target="ddAq5CgOGKGEsgJp8Uih-19" edge="1">
          <mxGeometry relative="1" as="geometry" />
        </mxCell>
        <mxCell id="ddAq5CgOGKGEsgJp8Uih-21" value="erp_loc_a101" style="swimlane;fontStyle=0;childLayout=stackLayout;horizontal=1;startSize=30;horizontalStack=0;resizeParent=1;resizeParentMax=0;resizeLast=0;collapsible=1;marginBottom=0;whiteSpace=wrap;html=1;fillColor=#e3c800;fontColor=#000000;strokeColor=#B09500;rounded=1;" parent="1" vertex="1">
          <mxGeometry x="560" y="580" width="200" height="60" as="geometry">
            <mxRectangle x="190" y="240" width="60" height="30" as="alternateBounds" />
          </mxGeometry>
        </mxCell>
        <mxCell id="ddAq5CgOGKGEsgJp8Uih-22" value="cid" style="text;strokeColor=none;fillColor=none;align=left;verticalAlign=middle;spacingLeft=4;spacingRight=4;overflow=hidden;points=[[0,0.5],[1,0.5]];portConstraint=eastwest;rotatable=0;whiteSpace=wrap;html=1;rounded=1;fontSize=14;" parent="ddAq5CgOGKGEsgJp8Uih-21" vertex="1">
          <mxGeometry y="30" width="200" height="30" as="geometry" />
        </mxCell>
        <mxCell id="ddAq5CgOGKGEsgJp8Uih-23" value="&lt;span style=&quot;font-size: 14px;&quot;&gt;Customer Localization (Country)&lt;/span&gt;" style="text;html=1;align=center;verticalAlign=middle;resizable=0;points=[];autosize=1;strokeColor=none;fillColor=none;" parent="1" vertex="1">
          <mxGeometry x="550" y="550" width="220" height="30" as="geometry" />
        </mxCell>
        <mxCell id="ddAq5CgOGKGEsgJp8Uih-24" style="edgeStyle=orthogonalEdgeStyle;rounded=0;orthogonalLoop=1;jettySize=auto;html=1;entryX=1;entryY=0.5;entryDx=0;entryDy=0;endArrow=none;startFill=0;" parent="1" source="ddAq5CgOGKGEsgJp8Uih-22" target="ddAq5CgOGKGEsgJp8Uih-19" edge="1">
          <mxGeometry relative="1" as="geometry" />
        </mxCell>
        <mxCell id="ddAq5CgOGKGEsgJp8Uih-25" value="erp_px_cat_g1v2" style="swimlane;fontStyle=0;childLayout=stackLayout;horizontal=1;startSize=30;horizontalStack=0;resizeParent=1;resizeParentMax=0;resizeLast=0;collapsible=1;marginBottom=0;whiteSpace=wrap;html=1;fillColor=#e3c800;fontColor=#000000;strokeColor=#B09500;rounded=1;" parent="1" vertex="1">
          <mxGeometry x="560" y="220" width="200" height="60" as="geometry">
            <mxRectangle x="190" y="240" width="60" height="30" as="alternateBounds" />
          </mxGeometry>
        </mxCell>
        <mxCell id="ddAq5CgOGKGEsgJp8Uih-26" value="id" style="text;strokeColor=none;fillColor=none;align=left;verticalAlign=middle;spacingLeft=4;spacingRight=4;overflow=hidden;points=[[0,0.5],[1,0.5]];portConstraint=eastwest;rotatable=0;rounded=1;fontSize=14;spacingBottom=0;whiteSpace=wrap;html=1;" parent="ddAq5CgOGKGEsgJp8Uih-25" vertex="1">
          <mxGeometry y="30" width="200" height="30" as="geometry" />
        </mxCell>
        <mxCell id="ddAq5CgOGKGEsgJp8Uih-27" value="&lt;span style=&quot;font-size: 14px;&quot;&gt;Product categories&lt;/span&gt;" style="text;html=1;align=center;verticalAlign=middle;resizable=0;points=[];autosize=1;strokeColor=none;fillColor=none;" parent="1" vertex="1">
          <mxGeometry x="590" y="190" width="140" height="30" as="geometry" />
        </mxCell>
        <mxCell id="ddAq5CgOGKGEsgJp8Uih-32" value="" style="rounded=1;whiteSpace=wrap;html=1;fillColor=none;dashed=1;" parent="1" vertex="1">
          <mxGeometry x="-240" y="160" width="600" height="520" as="geometry" />
        </mxCell>
        <mxCell id="ddAq5CgOGKGEsgJp8Uih-33" value="" style="rounded=1;whiteSpace=wrap;html=1;fillColor=none;dashed=1;" parent="1" vertex="1">
          <mxGeometry x="400" y="160" width="480" height="520" as="geometry" />
        </mxCell>
        <mxCell id="ddAq5CgOGKGEsgJp8Uih-31" style="edgeStyle=orthogonalEdgeStyle;rounded=0;orthogonalLoop=1;jettySize=auto;html=1;entryX=1;entryY=0.5;entryDx=0;entryDy=0;endArrow=none;startFill=0;" parent="1" source="ddAq5CgOGKGEsgJp8Uih-26" target="ddAq5CgOGKGEsgJp8Uih-8" edge="1">
          <mxGeometry relative="1" as="geometry" />
        </mxCell>
        <mxCell id="ddAq5CgOGKGEsgJp8Uih-34" value="CRM" style="text;html=1;align=center;verticalAlign=middle;resizable=0;points=[];autosize=1;strokeColor=#005700;fillColor=#008a00;fontColor=#ffffff;rounded=1;fontSize=32;" parent="1" vertex="1">
          <mxGeometry x="10" y="130" width="100" height="50" as="geometry" />
        </mxCell>
        <mxCell id="ddAq5CgOGKGEsgJp8Uih-35" value="ERP" style="text;html=1;align=center;verticalAlign=middle;resizable=0;points=[];autosize=1;strokeColor=#B09500;fillColor=#e3c800;fontColor=#000000;rounded=1;fontSize=32;" parent="1" vertex="1">
          <mxGeometry x="615" y="130" width="90" height="50" as="geometry" />
        </mxCell>
        <mxCell id="ddAq5CgOGKGEsgJp8Uih-3" value="cst_id" style="text;strokeColor=none;fillColor=none;align=left;verticalAlign=middle;spacingLeft=4;spacingRight=4;overflow=hidden;points=[[0,0.5],[1,0.5]];portConstraint=eastwest;rotatable=0;whiteSpace=wrap;html=1;rounded=1;fontSize=14;" parent="1" vertex="1">
          <mxGeometry x="120" y="540" width="200" height="30" as="geometry" />
        </mxCell>
        <mxCell id="ddAq5CgOGKGEsgJp8Uih-19" value="&lt;font&gt;cst_key&lt;/font&gt;" style="text;strokeColor=none;fillColor=none;align=left;verticalAlign=middle;spacingLeft=4;spacingRight=4;overflow=hidden;points=[[0,0.5],[1,0.5]];portConstraint=eastwest;rotatable=0;whiteSpace=wrap;html=1;rounded=1;fontSize=14;" parent="1" vertex="1">
          <mxGeometry x="120" y="570" width="200" height="30" as="geometry" />
        </mxCell>
        <mxCell id="IctIL4jzvIUfi_1f9JeV-1" value="&lt;font style=&quot;font-size: 11px; line-height: 100%;&quot;&gt;PRODUCT&lt;/font&gt;" style="text;html=1;strokeColor=#A50040;fillColor=#d80073;align=center;verticalAlign=middle;whiteSpace=wrap;overflow=hidden;fontColor=#ffffff;" parent="1" vertex="1">
          <mxGeometry x="120" y="353" width="200" height="20" as="geometry" />
        </mxCell>
        <mxCell id="IctIL4jzvIUfi_1f9JeV-2" value="&lt;font style=&quot;font-size: 11px; line-height: 100%;&quot;&gt;PRODUCTS&lt;/font&gt;" style="text;html=1;strokeColor=#A50040;fillColor=#d80073;align=center;verticalAlign=middle;whiteSpace=wrap;overflow=hidden;fontColor=#ffffff;" parent="1" vertex="1">
          <mxGeometry x="560" y="272" width="200" height="20" as="geometry" />
        </mxCell>
        <mxCell id="IctIL4jzvIUfi_1f9JeV-3" value="&lt;span style=&quot;font-size: 11px;&quot;&gt;CUSTOMER&lt;/span&gt;" style="text;html=1;strokeColor=#006EAF;fillColor=#1ba1e2;align=center;verticalAlign=middle;whiteSpace=wrap;overflow=hidden;fontColor=#ffffff;" parent="1" vertex="1">
          <mxGeometry x="120" y="595" width="200" height="20" as="geometry" />
        </mxCell>
        <mxCell id="IctIL4jzvIUfi_1f9JeV-4" value="&lt;span style=&quot;font-size: 11px;&quot;&gt;CUSTOMER&lt;/span&gt;" style="text;html=1;strokeColor=#006EAF;fillColor=#1ba1e2;align=center;verticalAlign=middle;whiteSpace=wrap;overflow=hidden;fontColor=#ffffff;" parent="1" vertex="1">
          <mxGeometry x="560" y="633" width="200" height="20" as="geometry" />
        </mxCell>
        <mxCell id="IctIL4jzvIUfi_1f9JeV-5" value="&lt;span style=&quot;font-size: 11px;&quot;&gt;CUSTOMER&lt;/span&gt;" style="text;html=1;strokeColor=#006EAF;fillColor=#1ba1e2;align=center;verticalAlign=middle;whiteSpace=wrap;overflow=hidden;fontColor=#ffffff;" parent="1" vertex="1">
          <mxGeometry x="560" y="513" width="200" height="20" as="geometry" />
        </mxCell>
        <mxCell id="IctIL4jzvIUfi_1f9JeV-6" value="&lt;span style=&quot;font-size: 11px;&quot;&gt;SALES&lt;/span&gt;" style="text;html=1;strokeColor=#432D57;fillColor=#76608a;align=center;verticalAlign=middle;whiteSpace=wrap;overflow=hidden;fontColor=#ffffff;" parent="1" vertex="1">
          <mxGeometry x="-200" y="443" width="200" height="20" as="geometry" />
        </mxCell>
      </root>
    </mxGraphModel>
  </diagram>
</mxfile>
